# xmcd
#
# Track frame offsets:
#	150
#	16287
#	33757
#	54215
#	71140
#	87682
#	105125
#	123655
#	143787
#	166390
#	186682
#	203140
#	221995
#	237435
#
# Disc length: 3356 seconds
#
# Revision: 1
# Processed by: cddbd v1.5.1PL2 Copyright (c) Steve Scherf et al.
# Submitted via: audiograbber 1.83.01
#
DISCID=ce0d1a0e
DTITLE=Music Maestro - mm6017
DYEAR=1900
DGENRE=
TTITLE0=Brooks and Dunn - Boot Scootin' Boogie
TTITLE1=Morgan, Lorrie - A Picture Of Me Without You
TTITLE2=Brooks, Garth - We Shall Be Free
TTITLE3=Tillis, Pam - Shake The Sugar Tree
TTITLE4=Ketcham, Hal - Sure Love
TTITLE5=McEntire, Reba - For My Broken Heart
TTITLE6=Dean, Billy - Only The Wind
TTITLE7=Yearwood, Trisha - Yearwood, Trisha
TTITLE8=McEntire, Reba - Fancy
TTITLE9=Cyrus, Billy Ray - Some Gave All
TTITLE10=Loveless, Patty - Jealous Bone
TTITLE11=Wynonna - I Saw The Light
TTITLE12=Raye, Collin - In This Life
TTITLE13=Diffie, Joe - Next Thing Smokin'
EXTD=
EXTT0=
EXTT1=
EXTT2=
EXTT3=
EXTT4=
EXTT5=
EXTT6=
EXTT7=
EXTT8=
EXTT9=
EXTT10=
EXTT11=
EXTT12=
EXTT13=
PLAYORDER=
